<?xml version="1.0" encoding="UTF-8"?><svg id="Camada_1" xmlns="http://www.w3.org/2000/svg" viewBox="0 0 908.83 757.11"><defs><style>.cls-1{fill:#3031a3;}</style></defs><rect class="cls-1" x="557.01" y="328.31" width="50.52" height="50.52" transform="translate(1164.53 707.13) rotate(180)"/><rect class="cls-1" x="607.88" y="379.08" width="50.52" height="50.52" transform="translate(1266.28 808.68) rotate(180)"/><rect class="cls-1" x="557.01" y="429.39" width="50.52" height="50.52" transform="translate(1164.53 909.31) rotate(180)"/><rect class="cls-1" x="506.65" y="379.08" width="50.52" height="50.52" transform="translate(1063.82 808.68) rotate(180)"/><rect class="cls-1" x="300.79" y="328.31" width="50.52" height="50.52" transform="translate(652.11 707.13) rotate(180)"/><rect class="cls-1" x="351.66" y="379.08" width="50.52" height="50.52" transform="translate(753.85 808.68) rotate(180)"/><rect class="cls-1" x="300.79" y="429.39" width="50.52" height="50.52" transform="translate(652.11 909.31) rotate(180)"/><rect class="cls-1" x="250.44" y="379.08" width="50.52" height="50.52" transform="translate(551.39 808.68) rotate(180)"/><rect class="cls-1" x="201.99" y="656.17" width="50.52" height="50.52" transform="translate(454.5 1362.86) rotate(180)"/><rect class="cls-1" x="656.42" y="656.17" width="50.52" height="50.52" transform="translate(1363.36 1362.86) rotate(180)"/><rect class="cls-1" x="201.99" y="201.77" width="50.52" height="50.52" transform="translate(454.5 454.06) rotate(180)"/><rect class="cls-1" x="656.42" y="201.77" width="50.52" height="50.52" transform="translate(1363.36 454.06) rotate(180)"/><rect class="cls-1" x="151.47" y="605.58" width="50.52" height="50.52" transform="translate(353.45 1261.68) rotate(180)"/><rect class="cls-1" x="151.47" y="555.06" width="50.52" height="50.52" transform="translate(353.45 1160.64) rotate(180)"/><rect class="cls-1" x="151.47" y="504.6" width="50.52" height="50.52" transform="translate(353.45 1059.73) rotate(180)"/><rect class="cls-1" x="100.95" y="504.68" width="50.52" height="50.52" transform="translate(252.41 1059.87) rotate(180)"/><rect class="cls-1" x="50.46" y="504.68" width="50.52" height="50.52" transform="translate(151.44 1059.87) rotate(180)"/><rect class="cls-1" x="151.47" y="454.08" width="50.52" height="50.52" transform="translate(353.45 958.68) rotate(180)"/><rect class="cls-1" x="151.47" y="403.62" width="50.52" height="50.52" transform="translate(353.45 857.77) rotate(180)"/><rect class="cls-1" x="151.47" y="353.1" width="50.52" height="50.52" transform="translate(353.45 756.73) rotate(180)"/><rect class="cls-1" x="0" y="454.08" width="50.52" height="50.52" transform="translate(50.52 958.68) rotate(180)"/><rect class="cls-1" y="403.62" width="50.52" height="50.52" transform="translate(50.52 857.77) rotate(180)"/><rect class="cls-1" x="0" y="353.1" width="50.52" height="50.52" transform="translate(50.52 756.73) rotate(180)"/><rect class="cls-1" x="151.47" y="302.65" width="50.52" height="50.52" transform="translate(353.45 655.81) rotate(180)"/><rect class="cls-1" x="100.97" y="302.59" width="50.52" height="204.13" transform="translate(252.47 809.31) rotate(180)"/><rect class="cls-1" x="50.45" y="302.59" width="50.52" height="204.13" transform="translate(151.43 809.31) rotate(180)"/><rect class="cls-1" x="50.43" y="252.07" width="50.52" height="50.52" transform="translate(151.37 554.67) rotate(180)"/><rect class="cls-1" x="50.43" y="201.59" width="50.52" height="50.52" transform="translate(151.37 453.69) rotate(180)"/><rect class="cls-1" x="50.43" y="151.09" width="50.52" height="50.52" transform="translate(151.37 352.71) rotate(180)"/><rect class="cls-1" x="100.91" y="100.67" width="50.52" height="50.52" transform="translate(252.34 251.85) rotate(180)"/><rect class="cls-1" x="151.42" y="50.15" width="50.52" height="50.52" transform="translate(353.36 150.81) rotate(180)"/><rect class="cls-1" x="201.97" y="0" width="50.52" height="50.52" transform="translate(454.47 50.52) rotate(180)"/><rect class="cls-1" x="252.46" y="0" width="50.52" height="50.52" transform="translate(555.44 50.52) rotate(180)"/><rect class="cls-1" x="302.95" y="0" width="50.52" height="50.52" transform="translate(656.42 50.52) rotate(180)"/><rect class="cls-1" x="353.44" y="0" width="50.52" height="50.52" transform="translate(757.4 50.52) rotate(180)"/><rect class="cls-1" x="403.93" y="0" width="50.52" height="50.52" transform="translate(858.38 50.52) rotate(180)"/><rect class="cls-1" x="454.42" y="0" width="50.52" height="50.52" transform="translate(959.35 50.52) rotate(180)"/><rect class="cls-1" x="504.91" y="0" width="50.52" height="50.52" transform="translate(1060.33 50.52) rotate(180)"/><rect class="cls-1" x="555.39" y="0" width="50.52" height="50.52" transform="translate(1161.31 50.52) rotate(180)"/><rect class="cls-1" x="605.88" width="50.52" height="50.52" transform="translate(1262.29 50.52) rotate(180)"/><rect class="cls-1" x="656.37" y="0" width="50.52" height="50.52" transform="translate(1363.27 50.52) rotate(180)"/><rect class="cls-1" x="807.76" y="252.07" width="50.52" height="50.52" transform="translate(1666.05 554.67) rotate(180)"/><rect class="cls-1" x="807.76" y="201.59" width="50.52" height="50.52" transform="translate(1666.05 453.69) rotate(180)"/><rect class="cls-1" x="807.76" y="151.09" width="50.52" height="50.52" transform="translate(1666.05 352.71) rotate(180)"/><rect class="cls-1" x="757.35" y="100.67" width="50.52" height="50.52" transform="translate(1565.23 251.85) rotate(180)"/><rect class="cls-1" x="706.86" y="50.15" width="50.52" height="50.52" transform="translate(1464.25 150.81) rotate(180)"/><rect class="cls-1" x="757.37" y="302.59" width="50.52" height="204.13"/><rect class="cls-1" x="807.86" y="302.6" width="50.52" height="204.13"/><rect class="cls-1" x="858.31" y="353.19" width="50.52" height="50.52"/><rect class="cls-1" x="858.31" y="403.65" width="50.52" height="50.52"/><rect class="cls-1" x="858.31" y="454.17" width="50.52" height="50.52"/><rect class="cls-1" x="757.34" y="504.68" width="50.52" height="50.52"/><rect class="cls-1" x="807.86" y="504.68" width="50.52" height="50.52"/><rect class="cls-1" x="151.47" y="252.12" width="50.52" height="50.52" transform="translate(353.45 554.77) rotate(180)"/><rect class="cls-1" x="706.85" y="605.58" width="50.52" height="50.52" transform="translate(1464.21 1261.68) rotate(180)"/><rect class="cls-1" x="706.85" y="555.06" width="50.52" height="50.52" transform="translate(1464.21 1160.64) rotate(180)"/><rect class="cls-1" x="706.85" y="504.6" width="50.52" height="50.52" transform="translate(1464.21 1059.73) rotate(180)"/><rect class="cls-1" x="706.85" y="454.08" width="50.52" height="50.52" transform="translate(1464.21 958.68) rotate(180)"/><rect class="cls-1" x="706.85" y="403.62" width="50.52" height="50.52" transform="translate(1464.21 857.77) rotate(180)"/><rect class="cls-1" x="706.85" y="353.1" width="50.52" height="50.52" transform="translate(1464.21 756.73) rotate(180)"/><rect class="cls-1" x="706.85" y="302.65" width="50.52" height="50.52" transform="translate(1464.21 655.81) rotate(180)"/><rect class="cls-1" x="706.85" y="252.12" width="50.52" height="50.52" transform="translate(1464.21 554.77) rotate(180)"/><rect class="cls-1" x="252.63" y="706.59" width="50.52" height="50.52" transform="translate(555.78 1463.71) rotate(180)"/><rect class="cls-1" x="303.15" y="706.59" width="50.52" height="50.52" transform="translate(656.82 1463.71) rotate(180)"/><rect class="cls-1" x="353.48" y="706.59" width="50.52" height="50.52" transform="translate(757.49 1463.71) rotate(180)"/><rect class="cls-1" x="404" y="706.59" width="50.52" height="50.52" transform="translate(858.53 1463.71) rotate(180)"/><rect class="cls-1" x="454.52" y="706.59" width="50.52" height="50.52" transform="translate(959.57 1463.71) rotate(180)"/><rect class="cls-1" x="505.04" y="706.59" width="50.52" height="50.52" transform="translate(1060.61 1463.71) rotate(180)"/><rect class="cls-1" x="555.57" y="706.59" width="50.52" height="50.52" transform="translate(1161.65 1463.71) rotate(180)"/><rect class="cls-1" x="606.09" y="706.59" width="50.52" height="50.52" transform="translate(1262.69 1463.71) rotate(180)"/><rect class="cls-1" x="252.63" y="151.59" width="50.52" height="50.52" transform="translate(555.78 353.7) rotate(180)"/><rect class="cls-1" x="303.15" y="151.59" width="50.52" height="50.52" transform="translate(656.82 353.7) rotate(180)"/><rect class="cls-1" x="353.48" y="151.59" width="50.52" height="50.52" transform="translate(757.49 353.7) rotate(180)"/><rect class="cls-1" x="404" y="151.59" width="50.52" height="50.52" transform="translate(858.53 353.7) rotate(180)"/><rect class="cls-1" x="454.52" y="151.59" width="50.52" height="50.52" transform="translate(959.57 353.7) rotate(180)"/><rect class="cls-1" x="505.04" y="151.59" width="50.52" height="50.52" transform="translate(1060.61 353.7) rotate(180)"/><rect class="cls-1" x="555.57" y="151.59" width="50.52" height="50.52" transform="translate(1161.65 353.7) rotate(180)"/><rect class="cls-1" x="606.09" y="151.59" width="50.52" height="50.52" transform="translate(1262.69 353.7) rotate(180)"/></svg>