<?xml version="1.0" encoding="UTF-8"?><svg id="Camada_1" xmlns="http://www.w3.org/2000/svg" viewBox="0 0 1457.19 433.96"><defs><style>.cls-1,.cls-2{fill:#fff;}.cls-2{fill-rule:evenodd;}</style></defs><rect class="cls-1" x="951.52" y="328.29" width="54.75" height="13.69" rx="6.71" ry="6.71"/><path class="cls-1" d="m926.58,246.04c0-3.7,3-6.71,6.71-6.71h68.42c3.82,0,6.86,3.18,6.7,6.99l-.03.68c-.16,3.6-3.14,6.44-6.74,6.42l-54.61-.36c-3.72-.02-6.75,2.98-6.75,6.7v164.49c0,3.7-3,6.71-6.71,6.71h-.28c-3.7,0-6.71-3-6.71-6.71v-178.22Z"/><path class="cls-1" d="m644.61,430.96c-22.72,0-41.06-18.34-41.06-41.06v-42.41c0-3.2,2.26-5.95,5.39-6.57l.28-.06c4.15-.83,8.02,2.34,8.02,6.57v42.47c0,15.06,12.32,27.38,27.38,27.38h39.53c3.82,0,6.87,3.19,6.7,7v.28c-.17,3.58-3.12,6.41-6.71,6.41h-39.51Zm-41.06-150.56c0-22.72,18.34-41.06,41.06-41.06h36.79c3.82,0,6.87,3.19,6.7,7v.28c-.17,3.58-3.12,6.41-6.71,6.41h-36.78c-15.06,0-27.38,12.32-27.38,27.38v41.2c0,3.7-3,6.71-6.71,6.71h-.28c-3.7,0-6.71-3-6.71-6.71v-41.2Z"/><path class="cls-1" d="m760.67,244.89c-.63,3.13-3.38,5.39-6.57,5.39h-5.45c-15.06,0-27.38,12.32-27.38,27.38v114.98c0,15.06,12.32,27.38,27.38,27.38h10.95c15.06,0,27.38-12.32,27.38-27.38v-114.98c0-8.96-4.59-17.01-11.5-22.19-2.66-1.99-4.19-5.34-3.2-8.51l.27-.86c1.15-3.68,5.19-5.67,8.47-3.64,11.85,7.31,19.65,21.16,19.65,35.2v114.98c0,22.72-18.34,41.06-41.06,41.06h-10.95c-22.72,0-41.06-18.34-41.06-41.06v-114.98c0-22.72,18.34-41.06,41.06-41.06h5.51c4.23,0,7.4,3.87,6.57,8.02l-.06.28Z"/><path class="cls-1" d="m825.29,246.04c0-3.7,3-6.71,6.71-6.71h68.42c3.82,0,6.86,3.18,6.7,6.99l-.03.68c-.16,3.6-3.14,6.44-6.74,6.42l-54.61-.36c-3.72-.02-6.75,2.98-6.75,6.7v164.49c0,3.7-3,6.71-6.71,6.71h-.28c-3.7,0-6.71-3-6.71-6.71v-178.22Zm79.69,89.24c0,3.7-3,6.71-6.71,6.71h-41.34c-3.7,0-6.71-3-6.71-6.71v-.28c0-3.7,3-6.71,6.71-6.71h41.34c3.7,0,6.71,3,6.71,6.71v.28Z"/><rect class="cls-1" x="1052.81" y="328.29" width="54.75" height="13.69" rx="6.71" ry="6.71"/><path class="cls-1" d="m1027.86,246.04c0-3.7,3-6.71,6.71-6.71h68.41c3.82,0,6.87,3.19,6.7,7v.28c-.17,3.58-3.12,6.41-6.71,6.41h-54.71c-3.7,0-6.71,3-6.71,6.71v150.84c0,3.7,3,6.71,6.71,6.71h57.91c3.65,0,6.62,2.91,6.7,6.56v.28c.09,3.76-2.94,6.85-6.7,6.85h-71.61c-3.7,0-6.71-3-6.71-6.71v-178.22Z"/><rect class="cls-1" x="1156.84" y="328.29" width="54.75" height="13.69" rx="6.71" ry="6.71"/><path class="cls-1" d="m1131.89,246.04c0-3.7,3-6.71,6.71-6.71h68.41c3.82,0,6.87,3.19,6.7,7v.28c-.17,3.58-3.12,6.41-6.71,6.41h-54.71c-3.7,0-6.71,3-6.71,6.71v150.84c0,3.7,3,6.71,6.71,6.71h57.91c3.65,0,6.62,2.91,6.7,6.56v.28c.09,3.76-2.94,6.85-6.7,6.85h-71.61c-3.7,0-6.71-3-6.71-6.71v-178.22Z"/><path class="cls-1" d="m1008.55,6.75c0-3.7,3-6.71,6.71-6.71h68.42c3.82,0,6.86,3.18,6.7,6.99l-.03.68c-.16,3.6-3.14,6.44-6.74,6.42l-54.61-.36c-3.72-.02-6.75,2.98-6.75,6.7v164.49c0,3.7-3,6.71-6.71,6.71h-.28c-3.7,0-6.71-3-6.71-6.71V6.75Zm79.69,89.24c0,3.7-3,6.71-6.71,6.71h-41.34c-3.7,0-6.71-3-6.71-6.71v-.28c0-3.7,3-6.71,6.71-6.71h41.34c3.7,0,6.71,3,6.71,6.71v.28Z"/><rect class="cls-1" x="1109.84" y=".04" width="13.69" height="191.63" rx="6.71" ry="6.71"/><path class="cls-1" d="m1266.04,184.54c.08-3.64,3.06-6.56,6.7-6.56h42.42c15.06,0,27.38-12.32,27.38-27.38v-21.9c0-13.69-10.13-25.19-23.27-27.1-2.97-.42-4.79-3.47-3.77-6.28l1.18-3.25c.88-2.43,3.32-3.92,5.88-3.6,19.16,3.01,33.67,19.98,33.67,40.24v21.9c0,22.72-18.34,41.06-41.06,41.06h-42.42c-3.76,0-6.79-3.09-6.7-6.85v-.28ZM1350.89,6.88c.08,3.76-2.94,6.85-6.7,6.85h-39.99c-15.06,0-27.38,12.32-27.38,27.38v16.43c0,13.69,10.13,24.91,23.27,27.1,2.58.46,4.31,2.9,3.89,5.49l-.49,2.97c-.52,3.16-3.54,5.28-6.69,4.68-19.16-3.29-33.67-19.98-33.67-40.24v-16.43c0-22.72,18.34-41.06,41.06-41.06h39.98c3.65,0,6.62,2.91,6.7,6.56v.28Z"/><path class="cls-1" d="m1402.75,30.01c0-3.7,3-6.71,6.71-6.71h.28c3.7,0,6.71,3,6.71,6.71v154.96c0,3.7-3,6.71-6.71,6.71h-.28c-3.7,0-6.71-3-6.71-6.71V30.01Zm-38.33-23.26c0-3.7,3-6.71,6.71-6.71h79.36c3.82,0,6.87,3.19,6.7,7v.28c-.17,3.58-3.12,6.41-6.71,6.41h-79.35c-3.7,0-6.71-3-6.71-6.71v-.28Z"/><path class="cls-1" d="m1149.89,6.71c0-3.7,3-6.71,6.71-6.71h45.31c22.72,0,41.06,18.34,41.06,41.06v24.64c0,10.86-4.14,20.5-10.82,27.76-3.22,3.5-3.22,9.43-.02,12.94,6.69,7.33,10.84,17.07,10.84,27.74v50.78c0,3.7-3,6.71-6.71,6.71h-.28c-3.7,0-6.71-3-6.71-6.71v-50.78c0-14.51-11.77-27.38-26.28-27.38h-18.87c-3.65,0-6.62-2.91-6.7-6.56v-.28c-.09-3.76,2.94-6.85,6.7-6.85h18.88c14.51,0,26.28-12.59,26.28-27.38v-24.64c0-15.06-12.32-27.38-27.38-27.38h-31.62c-3.7,0-6.71,3-6.71,6.71v164.53c0,3.7-3,6.71-6.71,6.71h-.28c-3.7,0-6.71-3-6.71-6.71V6.71Z"/><path class="cls-1" d="m869.08,30.71c0-3.7,3-6.71,6.71-6.71h.28c3.7,0,6.71,3,6.71,6.71v154.96c0,3.7-3,6.71-6.71,6.71h-.28c-3.7,0-6.71-3-6.71-6.71V30.71Zm-38.33-23.26c0-3.7,3-6.71,6.71-6.71h79.36c3.82,0,6.87,3.19,6.7,7v.28c-.17,3.58-3.12,6.41-6.71,6.41h-79.35c-3.7,0-6.71-3-6.71-6.71v-.28Z"/><path class="cls-1" d="m807.64.75c3.7,0,6.71,3,6.71,6.71v146.6c0,22.72-18.34,41.06-41.06,41.06h-5.51c-4.23,0-7.4-3.87-6.57-8.02l.06-.28c.63-3.13,3.38-5.39,6.57-5.39h5.45c15.06,0,27.38-12.32,27.38-27.38V7.45c0-3.7,3-6.71,6.71-6.71h.28Zm-79.39,0c3.7,0,6.71,3,6.71,6.71v146.6c0,9.4,4.58,17.16,11.48,22.22,2.68,1.96,4.21,5.31,3.22,8.48l-.27.86c-1.15,3.68-5.19,5.67-8.48,3.67-11.84-7.21-19.64-20.72-19.64-35.22V7.45c0-3.7,3-6.71,6.71-6.71h.28Z"/><path class="cls-2" d="m610.26.75c-3.7,0-6.71,3-6.71,6.71v71.44c0,3.7,3,6.71,6.71,6.71h56.2c16.66,0,30.17-13.51,30.17-30.17v-24.51c0-16.66-13.51-30.17-30.17-30.17h-56.2Zm6.71,13.41v58.03h49.49c9.26,0,16.76-7.5,16.76-16.76v-24.51c0-9.26-7.5-16.76-16.76-16.76h-49.49Z"/><path class="cls-2" d="m610.26,97.93c-3.7,0-6.71,3-6.71,6.71v81.03c0,3.7,3,6.71,6.71,6.71h57.87c15.74,0,28.5-12.76,28.5-28.5v-37.45c0-15.74-12.76-28.5-28.5-28.5h-57.87Zm6.71,13.41v67.62h51.17c8.33,0,15.09-6.75,15.09-15.09v-37.45c0-8.33-6.75-15.09-15.09-15.09h-51.17Z"/><rect class="cls-1" x="317.91" y="189.23" width="28.83" height="28.83" transform="translate(664.64 407.29) rotate(180)"/><rect class="cls-1" x="346.94" y="218.2" width="28.83" height="28.83" transform="translate(722.71 465.24) rotate(180)"/><rect class="cls-1" x="317.91" y="246.92" width="28.83" height="28.83" transform="translate(664.64 522.68) rotate(180)"/><rect class="cls-1" x="289.16" y="218.2" width="28.83" height="28.83" transform="translate(607.16 465.24) rotate(180)"/><rect class="cls-1" x="171.67" y="189.23" width="28.83" height="28.83" transform="translate(372.18 407.29) rotate(180)"/><rect class="cls-1" x="200.71" y="218.2" width="28.83" height="28.83" transform="translate(430.25 465.24) rotate(180)"/><rect class="cls-1" x="171.67" y="246.92" width="28.83" height="28.83" transform="translate(372.18 522.68) rotate(180)"/><rect class="cls-1" x="142.93" y="218.2" width="28.83" height="28.83" transform="translate(314.7 465.24) rotate(180)"/><rect class="cls-1" x="115.28" y="376.35" width="28.83" height="28.83" transform="translate(259.4 781.53) rotate(180)"/><rect class="cls-1" x="374.64" y="376.35" width="28.83" height="28.83" transform="translate(778.12 781.53) rotate(180)"/><rect class="cls-1" x="115.28" y="117.01" width="28.83" height="28.83" transform="translate(259.4 262.85) rotate(180)"/><rect class="cls-1" x="374.64" y="117.01" width="28.83" height="28.83" transform="translate(778.12 262.85) rotate(180)"/><rect class="cls-1" x="86.45" y="347.48" width="28.83" height="28.83" transform="translate(201.73 723.79) rotate(180)"/><rect class="cls-1" x="86.45" y="318.64" width="28.83" height="28.83" transform="translate(201.73 666.12) rotate(180)"/><rect class="cls-1" x="86.45" y="289.85" width="28.83" height="28.83" transform="translate(201.73 608.52) rotate(180)"/><rect class="cls-1" x="57.61" y="289.89" width="28.83" height="28.83" transform="translate(144.06 608.61) rotate(180)"/><rect class="cls-1" x="28.8" y="289.89" width="28.83" height="28.83" transform="translate(86.43 608.61) rotate(180)"/><rect class="cls-1" x="86.45" y="261.01" width="28.83" height="28.83" transform="translate(201.73 550.86) rotate(180)"/><rect class="cls-1" x="86.45" y="232.21" width="28.83" height="28.83" transform="translate(201.73 493.26) rotate(180)"/><rect class="cls-1" x="86.45" y="203.38" width="28.83" height="28.83" transform="translate(201.73 435.59) rotate(180)"/><rect class="cls-1" x="0" y="261.01" width="28.83" height="28.83" transform="translate(28.83 550.86) rotate(180)"/><rect class="cls-1" y="232.21" width="28.83" height="28.83" transform="translate(28.83 493.26) rotate(180)"/><rect class="cls-1" x="0" y="203.38" width="28.83" height="28.83" transform="translate(28.83 435.59) rotate(180)"/><rect class="cls-1" x="86.45" y="174.58" width="28.83" height="28.83" transform="translate(201.73 378) rotate(180)"/><rect class="cls-1" x="57.63" y="174.55" width="28.83" height="116.5" transform="translate(144.09 465.6) rotate(180)"/><rect class="cls-1" x="28.8" y="174.55" width="28.83" height="116.5" transform="translate(86.43 465.6) rotate(180)"/><rect class="cls-1" x="28.78" y="145.72" width="28.83" height="28.83" transform="translate(86.39 320.27) rotate(180)"/><rect class="cls-1" x="28.78" y="116.9" width="28.83" height="28.83" transform="translate(86.39 262.64) rotate(180)"/><rect class="cls-1" x="28.78" y="88.08" width="28.83" height="28.83" transform="translate(86.39 205) rotate(180)"/><rect class="cls-1" x="57.59" y="59.3" width="28.83" height="28.83" transform="translate(144.02 147.44) rotate(180)"/><rect class="cls-1" x="86.42" y="30.47" width="28.83" height="28.83" transform="translate(201.68 89.77) rotate(180)"/><rect class="cls-1" x="115.27" y="1.85" width="28.83" height="28.83" transform="translate(259.38 32.53) rotate(180)"/><rect class="cls-1" x="144.09" y="1.85" width="28.83" height="28.83" transform="translate(317.01 32.53) rotate(180)"/><rect class="cls-1" x="172.91" y="1.85" width="28.83" height="28.83" transform="translate(374.64 32.53) rotate(180)"/><rect class="cls-1" x="201.72" y="1.85" width="28.83" height="28.83" transform="translate(432.28 32.53) rotate(180)"/><rect class="cls-1" x="230.54" y="1.85" width="28.83" height="28.83" transform="translate(489.91 32.53) rotate(180)"/><rect class="cls-1" x="259.35" y="1.85" width="28.83" height="28.83" transform="translate(547.54 32.53) rotate(180)"/><rect class="cls-1" x="288.17" y="1.85" width="28.83" height="28.83" transform="translate(605.17 32.53) rotate(180)"/><rect class="cls-1" x="316.98" y="1.85" width="28.83" height="28.83" transform="translate(662.8 32.53) rotate(180)"/><rect class="cls-1" x="345.8" y="1.85" width="28.83" height="28.83" transform="translate(720.44 32.53) rotate(180)"/><rect class="cls-1" x="374.62" y="1.85" width="28.83" height="28.83" transform="translate(778.07 32.53) rotate(180)"/><rect class="cls-1" x="461.02" y="145.72" width="28.83" height="28.83" transform="translate(950.88 320.27) rotate(180)"/><rect class="cls-1" x="461.02" y="116.9" width="28.83" height="28.83" transform="translate(950.88 262.64) rotate(180)"/><rect class="cls-1" x="461.02" y="88.08" width="28.83" height="28.83" transform="translate(950.88 205) rotate(180)"/><rect class="cls-1" x="432.25" y="59.3" width="28.83" height="28.83" transform="translate(893.33 147.44) rotate(180)"/><rect class="cls-1" x="403.43" y="30.47" width="28.83" height="28.83" transform="translate(835.7 89.77) rotate(180)"/><rect class="cls-1" x="432.26" y="174.55" width="28.83" height="116.5"/><rect class="cls-1" x="461.07" y="174.55" width="28.83" height="116.5"/><rect class="cls-1" x="489.87" y="203.43" width="28.83" height="28.83"/><rect class="cls-1" x="489.87" y="232.23" width="28.83" height="28.83"/><rect class="cls-1" x="489.87" y="261.06" width="28.83" height="28.83"/><rect class="cls-1" x="432.24" y="289.89" width="28.83" height="28.83"/><rect class="cls-1" x="461.07" y="289.89" width="28.83" height="28.83"/><rect class="cls-1" x="86.45" y="145.75" width="28.83" height="28.83" transform="translate(201.73 320.33) rotate(180)"/><rect class="cls-1" x="403.42" y="347.48" width="28.83" height="28.83" transform="translate(835.68 723.79) rotate(180)"/><rect class="cls-1" x="403.42" y="318.64" width="28.83" height="28.83" transform="translate(835.68 666.12) rotate(180)"/><rect class="cls-1" x="403.42" y="289.85" width="28.83" height="28.83" transform="translate(835.68 608.52) rotate(180)"/><rect class="cls-1" x="403.42" y="261.01" width="28.83" height="28.83" transform="translate(835.68 550.86) rotate(180)"/><rect class="cls-1" x="403.42" y="232.21" width="28.83" height="28.83" transform="translate(835.68 493.26) rotate(180)"/><rect class="cls-1" x="403.42" y="203.38" width="28.83" height="28.83" transform="translate(835.68 435.59) rotate(180)"/><rect class="cls-1" x="403.42" y="174.58" width="28.83" height="28.83" transform="translate(835.68 378) rotate(180)"/><rect class="cls-1" x="403.42" y="145.75" width="28.83" height="28.83" transform="translate(835.68 320.33) rotate(180)"/><rect class="cls-1" x="144.19" y="405.13" width="28.83" height="28.83" transform="translate(317.21 839.09) rotate(180)"/><rect class="cls-1" x="173.02" y="405.13" width="28.83" height="28.83" transform="translate(374.87 839.09) rotate(180)"/><rect class="cls-1" x="201.75" y="405.13" width="28.83" height="28.83" transform="translate(432.33 839.09) rotate(180)"/><rect class="cls-1" x="230.58" y="405.13" width="28.83" height="28.83" transform="translate(489.99 839.09) rotate(180)"/><rect class="cls-1" x="259.41" y="405.13" width="28.83" height="28.83" transform="translate(547.66 839.09) rotate(180)"/><rect class="cls-1" x="288.25" y="405.13" width="28.83" height="28.83" transform="translate(605.33 839.09) rotate(180)"/><rect class="cls-1" x="317.08" y="405.13" width="28.83" height="28.83" transform="translate(663 839.09) rotate(180)"/><rect class="cls-1" x="345.92" y="405.13" width="28.83" height="28.83" transform="translate(720.67 839.09) rotate(180)"/><rect class="cls-1" x="144.19" y="88.37" width="28.83" height="28.83" transform="translate(317.21 205.57) rotate(180)"/><rect class="cls-1" x="173.02" y="88.37" width="28.83" height="28.83" transform="translate(374.87 205.57) rotate(180)"/><rect class="cls-1" x="201.75" y="88.37" width="28.83" height="28.83" transform="translate(432.33 205.57) rotate(180)"/><rect class="cls-1" x="230.58" y="88.37" width="28.83" height="28.83" transform="translate(489.99 205.57) rotate(180)"/><rect class="cls-1" x="259.41" y="88.37" width="28.83" height="28.83" transform="translate(547.66 205.57) rotate(180)"/><rect class="cls-1" x="288.25" y="88.37" width="28.83" height="28.83" transform="translate(605.33 205.57) rotate(180)"/><rect class="cls-1" x="317.08" y="88.37" width="28.83" height="28.83" transform="translate(663 205.57) rotate(180)"/><rect class="cls-1" x="345.92" y="88.37" width="28.83" height="28.83" transform="translate(720.67 205.57) rotate(180)"/></svg>